<svg width="428" height="336" viewBox="0 0 428 336" fill="none" xmlns="http://www.w3.org/2000/svg">
<g opacity="0.204729">
<path opacity="0.404971" d="M243.74 1.84055C244.519 1.38648 245.481 1.38648 246.26 1.84055L302.26 34.5072C303.028 34.9552 303.5 35.7775 303.5 36.6667V102.072C303.5 102.961 303.028 103.783 302.26 104.231L246.26 136.898C245.481 137.352 244.519 137.352 243.74 136.898L187.74 104.231C186.972 103.783 186.5 102.961 186.5 102.072V36.6667C186.5 35.7775 186.972 34.9552 187.74 34.5072L243.74 1.84055Z" fill="white" stroke="#3A3D3D" stroke-width="3"/>
</g>
<g opacity="0.204729">
<path opacity="0.404971" d="M304.74 109.841C305.519 109.386 306.481 109.386 307.26 109.841L363.26 142.507C364.028 142.955 364.5 143.778 364.5 144.667V210.072C364.5 210.961 364.028 211.783 363.26 212.231L307.26 244.898C306.481 245.352 305.519 245.352 304.74 244.898L248.74 212.231C247.972 211.783 247.5 210.961 247.5 210.072V144.667C247.5 143.778 247.972 142.955 248.74 142.507L304.74 109.841Z" fill="white" stroke="#3A3D3D" stroke-width="3"/>
</g>
<path opacity="0.204729" d="M366.74 216.841C367.519 216.386 368.481 216.386 369.26 216.841L425.26 249.507C426.028 249.955 426.5 250.777 426.5 251.667V317.072C426.5 317.961 426.028 318.783 425.26 319.231L369.26 351.898C368.481 352.352 367.519 352.352 366.74 351.898L310.74 319.231C309.972 318.783 309.5 317.961 309.5 317.072V251.667C309.5 250.777 309.972 249.955 310.74 249.507L366.74 216.841L365.984 215.545L366.74 216.841Z" fill="white" stroke="#3A3D3D" stroke-width="3"/>
<g opacity="0.204729">
<path opacity="0.404971" d="M179.74 324.841C180.519 324.386 181.481 324.386 182.26 324.841L238.26 357.507C239.028 357.955 239.5 358.778 239.5 359.667V425.072C239.5 425.961 239.028 426.783 238.26 427.231L182.26 459.898C181.481 460.352 180.519 460.352 179.74 459.898L123.74 427.231C122.972 426.783 122.5 425.961 122.5 425.072V359.667C122.5 358.778 122.972 357.955 123.74 357.507L179.74 324.841Z" fill="white" stroke="#3A3D3D" stroke-width="3"/>
</g>
<g opacity="0.204729">
<path opacity="0.404971" d="M58.7403 324.841C59.5187 324.386 60.4812 324.386 61.2596 324.841L117.26 357.507C118.028 357.955 118.5 358.778 118.5 359.667V425.072C118.5 425.961 118.028 426.783 117.26 427.231L61.2596 459.898C60.4812 460.352 59.5187 460.352 58.7403 459.898L2.74032 427.231C1.97228 426.783 1.5 425.961 1.5 425.072V359.667C1.5 358.778 1.97228 357.955 2.74032 357.507L58.7403 324.841L57.9908 323.556L58.7403 324.841Z" fill="white" stroke="#3A3D3D" stroke-width="3"/>
</g>
<g opacity="0.204729">
<path opacity="0.404971" d="M304.74 324.841C305.519 324.386 306.481 324.386 307.26 324.841L363.26 357.507C364.028 357.955 364.5 358.778 364.5 359.667V425.072C364.5 425.961 364.028 426.783 363.26 427.231L307.26 459.898C306.481 460.352 305.519 460.352 304.74 459.898L248.74 427.231C247.972 426.783 247.5 425.961 247.5 425.072V359.667C247.5 358.778 247.972 357.955 248.74 357.507L304.74 324.841Z" fill="white" stroke="#3A3D3D" stroke-width="3"/>
</g>
<path opacity="0.404971" d="M180.74 109.841C181.519 109.386 182.481 109.386 183.26 109.841L239.26 142.507C240.028 142.955 240.5 143.778 240.5 144.667V210.072C240.5 210.961 240.028 211.783 239.26 212.231L183.26 244.898C182.481 245.352 181.519 245.352 180.74 244.898L124.74 212.231C123.972 211.783 123.5 210.961 123.5 210.072V144.667C123.5 143.778 123.972 142.955 124.74 142.507L180.74 109.841Z" fill="white" stroke="#9A54B1" stroke-width="3"/>
<path opacity="0.391788" d="M148.184 184V169.144H156.512V170.824H150.152V175.384H155.72V177.064H150.152V182.32H157.04V184H148.184ZM166.112 184.264C165.408 184.264 164.824 184.168 164.36 183.976C163.896 183.784 163.528 183.496 163.256 183.112C162.984 182.728 162.792 182.256 162.68 181.696C162.568 181.12 162.512 180.456 162.512 179.704V169.168H159.296V167.488H164.48V179.704C164.48 180.264 164.512 180.72 164.576 181.072C164.656 181.424 164.768 181.712 164.912 181.936C165.072 182.144 165.264 182.288 165.488 182.368C165.712 182.448 165.976 182.488 166.28 182.488C166.744 182.488 167.176 182.432 167.576 182.32C167.976 182.208 168.288 182.088 168.512 181.96L168.8 183.64C168.704 183.688 168.568 183.752 168.392 183.832C168.216 183.896 168.008 183.96 167.768 184.024C167.528 184.088 167.264 184.144 166.976 184.192C166.704 184.24 166.416 184.264 166.112 184.264ZM175.016 171.136C174.6 171.136 174.24 170.992 173.936 170.704C173.632 170.416 173.48 170.024 173.48 169.528C173.48 169.032 173.632 168.64 173.936 168.352C174.24 168.064 174.6 167.92 175.016 167.92C175.448 167.92 175.808 168.064 176.096 168.352C176.4 168.64 176.552 169.032 176.552 169.528C176.552 170.024 176.4 170.416 176.096 170.704C175.808 170.992 175.448 171.136 175.016 171.136ZM174.512 174.52H171.296V172.864H176.48V179.704C176.48 180.808 176.632 181.552 176.936 181.936C177.24 182.304 177.696 182.488 178.304 182.488C178.768 182.488 179.192 182.432 179.576 182.32C179.976 182.208 180.288 182.088 180.512 181.96L180.8 183.64C180.704 183.688 180.568 183.752 180.392 183.832C180.216 183.896 180.008 183.96 179.768 184.024C179.544 184.088 179.288 184.144 179 184.192C178.728 184.24 178.44 184.264 178.136 184.264C177.432 184.264 176.848 184.168 176.384 183.976C175.92 183.784 175.544 183.496 175.256 183.112C174.984 182.728 174.792 182.256 174.68 181.696C174.568 181.12 174.512 180.456 174.512 179.704V174.52ZM191.12 184C190.96 183.68 190.76 183.328 190.52 182.944C190.296 182.56 190.048 182.168 189.776 181.768C189.504 181.352 189.216 180.944 188.912 180.544C188.624 180.144 188.336 179.768 188.048 179.416C187.76 179.784 187.456 180.168 187.136 180.568C186.816 180.968 186.504 181.376 186.2 181.792C185.912 182.192 185.64 182.584 185.384 182.968C185.128 183.352 184.912 183.696 184.736 184H182.696C183.224 183.04 183.864 182.056 184.616 181.048C185.384 180.024 186.136 179.056 186.872 178.144L182.864 172.864H185.096L188.096 176.752L190.856 172.864H192.968L189.296 178.024C190.016 178.968 190.736 179.952 191.456 180.976C192.192 182 192.816 183.008 193.328 184H191.12ZM199.016 171.136C198.6 171.136 198.24 170.992 197.936 170.704C197.632 170.416 197.48 170.024 197.48 169.528C197.48 169.032 197.632 168.64 197.936 168.352C198.24 168.064 198.6 167.92 199.016 167.92C199.448 167.92 199.808 168.064 200.096 168.352C200.4 168.64 200.552 169.032 200.552 169.528C200.552 170.024 200.4 170.416 200.096 170.704C199.808 170.992 199.448 171.136 199.016 171.136ZM198.512 174.52H195.296V172.864H200.48V179.704C200.48 180.808 200.632 181.552 200.936 181.936C201.24 182.304 201.696 182.488 202.304 182.488C202.768 182.488 203.192 182.432 203.576 182.32C203.976 182.208 204.288 182.088 204.512 181.96L204.8 183.64C204.704 183.688 204.568 183.752 204.392 183.832C204.216 183.896 204.008 183.96 203.768 184.024C203.544 184.088 203.288 184.144 203 184.192C202.728 184.24 202.44 184.264 202.136 184.264C201.432 184.264 200.848 184.168 200.384 183.976C199.92 183.784 199.544 183.496 199.256 183.112C198.984 182.728 198.792 182.256 198.68 181.696C198.568 181.12 198.512 180.456 198.512 179.704V174.52ZM208.568 184V173.464C210.2 172.904 211.848 172.624 213.512 172.624C214.024 172.624 214.512 172.648 214.976 172.696C215.44 172.728 215.952 172.808 216.512 172.936L216.152 174.688C215.64 174.544 215.184 174.456 214.784 174.424C214.4 174.376 213.976 174.352 213.512 174.352C212.536 174.352 211.544 174.488 210.536 174.76V184H208.568Z" fill="#3A3D3D"/>
<path opacity="0.404971" d="M242.74 217.841C243.519 217.386 244.481 217.386 245.26 217.841L301.26 250.507C302.028 250.955 302.5 251.778 302.5 252.667V318.072C302.5 318.961 302.028 319.783 301.26 320.231L245.26 352.898C244.481 353.352 243.519 353.352 242.74 352.898L186.74 320.231C185.972 319.783 185.5 318.961 185.5 318.072V252.667C185.5 251.778 185.972 250.955 186.74 250.507L242.74 217.841Z" fill="white" stroke="#3A3D3D" stroke-width="3"/>
<path opacity="0.391788" d="M199.64 277C200.52 277 201.288 277.112 201.944 277.336C202.616 277.56 203.168 277.88 203.6 278.296C204.048 278.696 204.376 279.176 204.584 279.736C204.808 280.296 204.92 280.92 204.92 281.608C204.92 283.16 204.464 284.36 203.552 285.208C202.64 286.04 201.272 286.456 199.448 286.456H197.72V292H195.752V277.36C196.04 277.296 196.352 277.24 196.688 277.192C197.04 277.144 197.384 277.104 197.72 277.072C198.072 277.04 198.408 277.024 198.728 277.024C199.064 277.008 199.368 277 199.64 277ZM199.784 278.704C199.368 278.704 198.968 278.712 198.584 278.728C198.2 278.728 197.912 278.744 197.72 278.776V284.776H199.352C200.552 284.776 201.44 284.536 202.016 284.056C202.608 283.576 202.904 282.784 202.904 281.68C202.904 279.696 201.864 278.704 199.784 278.704ZM212.12 290.584C212.616 290.584 213.056 290.568 213.44 290.536C213.84 290.504 214.168 290.464 214.424 290.416V287.104C214.168 287.024 213.856 286.96 213.488 286.912C213.136 286.864 212.76 286.84 212.36 286.84C211.992 286.84 211.632 286.872 211.28 286.936C210.928 286.984 210.616 287.08 210.344 287.224C210.072 287.368 209.848 287.56 209.672 287.8C209.496 288.024 209.408 288.312 209.408 288.664C209.408 289.384 209.648 289.888 210.128 290.176C210.624 290.448 211.288 290.584 212.12 290.584ZM211.928 280.6C212.76 280.6 213.456 280.704 214.016 280.912C214.592 281.12 215.056 281.408 215.408 281.776C215.76 282.144 216.008 282.592 216.152 283.12C216.296 283.648 216.368 284.224 216.368 284.848V291.808C215.904 291.888 215.288 291.984 214.52 292.096C213.768 292.208 212.992 292.264 212.192 292.264C211.584 292.264 210.992 292.208 210.416 292.096C209.84 292 209.328 291.824 208.88 291.568C208.432 291.296 208.072 290.928 207.8 290.464C207.528 290 207.392 289.408 207.392 288.688C207.392 288.048 207.528 287.512 207.8 287.08C208.088 286.632 208.448 286.272 208.88 286C209.328 285.728 209.832 285.536 210.392 285.424C210.968 285.296 211.544 285.232 212.12 285.232C212.904 285.232 213.672 285.32 214.424 285.496V284.944C214.424 284.608 214.384 284.288 214.304 283.984C214.24 283.664 214.104 283.376 213.896 283.12C213.704 282.864 213.432 282.664 213.08 282.52C212.744 282.36 212.304 282.28 211.76 282.28C211.072 282.28 210.472 282.328 209.96 282.424C209.448 282.52 209.056 282.616 208.784 282.712L208.544 281.08C208.816 280.952 209.264 280.84 209.888 280.744C210.528 280.648 211.208 280.6 211.928 280.6ZM219.224 294.088C219.368 294.168 219.568 294.232 219.824 294.28C220.096 294.328 220.344 294.352 220.568 294.352C221.352 294.352 221.96 294.176 222.392 293.824C222.84 293.488 223.248 292.928 223.616 292.144C222.72 290.448 221.88 288.632 221.096 286.696C220.312 284.744 219.664 282.8 219.152 280.864H221.312C221.472 281.504 221.656 282.2 221.864 282.952C222.088 283.688 222.336 284.448 222.608 285.232C222.88 286.016 223.168 286.808 223.472 287.608C223.792 288.392 224.128 289.144 224.48 289.864C224.736 289.128 224.976 288.4 225.2 287.68C225.424 286.96 225.632 286.24 225.824 285.52C226.016 284.784 226.208 284.04 226.4 283.288C226.592 282.52 226.792 281.712 227 280.864H229.064C228.552 282.944 227.976 284.96 227.336 286.912C226.712 288.864 226.04 290.672 225.32 292.336C225.048 292.976 224.752 293.528 224.432 293.992C224.128 294.456 223.792 294.84 223.424 295.144C223.056 295.448 222.64 295.672 222.176 295.816C221.712 295.96 221.184 296.032 220.592 296.032C220.288 296.032 219.952 295.992 219.584 295.912C219.232 295.832 218.992 295.76 218.864 295.696L219.224 294.088ZM230.984 281.176C231.944 280.808 232.848 280.624 233.696 280.624C234.16 280.624 234.592 280.696 234.992 280.84C235.408 280.968 235.76 281.176 236.048 281.464C236.736 280.904 237.472 280.624 238.256 280.624C238.64 280.624 239 280.696 239.336 280.84C239.688 280.984 239.992 281.2 240.248 281.488C240.52 281.776 240.736 282.136 240.896 282.568C241.056 283 241.136 283.504 241.136 284.08V292H239.336V284.032C239.336 283.456 239.208 283.016 238.952 282.712C238.696 282.408 238.376 282.256 237.992 282.256C237.8 282.256 237.6 282.304 237.392 282.4C237.184 282.496 236.992 282.648 236.816 282.856C236.912 283.224 236.96 283.632 236.96 284.08V287.704H235.16V284.056C235.16 283.496 235.072 283.056 234.896 282.736C234.72 282.416 234.376 282.256 233.864 282.256C233.544 282.256 233.184 282.328 232.784 282.472V292H230.984V281.176ZM248.216 280.6C249.72 280.6 250.88 281.072 251.696 282.016C252.512 282.944 252.92 284.36 252.92 286.264V286.96H244.952C245.032 288.112 245.408 288.992 246.08 289.6C246.768 290.192 247.728 290.488 248.96 290.488C249.664 290.488 250.264 290.432 250.76 290.32C251.256 290.208 251.632 290.088 251.888 289.96L252.152 291.64C251.912 291.768 251.48 291.904 250.856 292.048C250.232 292.192 249.528 292.264 248.744 292.264C247.784 292.264 246.936 292.12 246.2 291.832C245.48 291.528 244.88 291.12 244.4 290.608C243.92 290.096 243.56 289.488 243.32 288.784C243.08 288.064 242.96 287.288 242.96 286.456C242.96 285.464 243.112 284.6 243.416 283.864C243.72 283.128 244.12 282.52 244.616 282.04C245.112 281.56 245.672 281.2 246.296 280.96C246.92 280.72 247.56 280.6 248.216 280.6ZM250.904 285.352C250.904 284.408 250.656 283.664 250.16 283.12C249.664 282.56 249.008 282.28 248.192 282.28C247.728 282.28 247.304 282.368 246.92 282.544C246.552 282.72 246.232 282.952 245.96 283.24C245.688 283.528 245.472 283.856 245.312 284.224C245.152 284.592 245.048 284.968 245 285.352H250.904ZM255.704 281.176C256.424 281 257.136 280.864 257.84 280.768C258.56 280.672 259.232 280.624 259.856 280.624C261.344 280.624 262.464 281.008 263.216 281.776C263.984 282.544 264.368 283.776 264.368 285.472V292H262.4V285.832C262.4 285.112 262.336 284.528 262.208 284.08C262.08 283.632 261.896 283.288 261.656 283.048C261.432 282.792 261.152 282.616 260.816 282.52C260.496 282.424 260.144 282.376 259.76 282.376C259.44 282.376 259.096 282.4 258.728 282.448C258.376 282.48 258.032 282.528 257.696 282.592V292H255.704V281.176ZM271.832 280.864H276.536V282.52H271.832V287.704C271.832 288.264 271.872 288.72 271.952 289.072C272.032 289.424 272.16 289.712 272.336 289.936C272.528 290.144 272.768 290.288 273.056 290.368C273.344 290.448 273.696 290.488 274.112 290.488C274.688 290.488 275.152 290.44 275.504 290.344C275.856 290.248 276.192 290.12 276.512 289.96L276.8 291.64C276.576 291.736 276.216 291.864 275.72 292.024C275.24 292.184 274.64 292.264 273.92 292.264C273.088 292.264 272.408 292.168 271.88 291.976C271.352 291.784 270.936 291.496 270.632 291.112C270.344 290.728 270.144 290.256 270.032 289.696C269.92 289.12 269.864 288.456 269.864 287.704V282.52H267.512V280.864H269.864V277.744L271.832 277.408V280.864ZM286.424 289.216C286.424 288.816 286.256 288.488 285.92 288.232C285.6 287.976 285.192 287.752 284.696 287.56C284.216 287.368 283.688 287.184 283.112 287.008C282.536 286.816 282 286.584 281.504 286.312C281.024 286.04 280.616 285.704 280.28 285.304C279.96 284.904 279.8 284.384 279.8 283.744C279.8 282.848 280.16 282.104 280.88 281.512C281.616 280.904 282.76 280.6 284.312 280.6C284.92 280.6 285.544 280.648 286.184 280.744C286.84 280.824 287.4 280.936 287.864 281.08L287.504 282.856C287.376 282.792 287.2 282.728 286.976 282.664C286.752 282.584 286.496 282.52 286.208 282.472C285.92 282.408 285.608 282.36 285.272 282.328C284.952 282.296 284.64 282.28 284.336 282.28C282.608 282.28 281.744 282.752 281.744 283.696C281.744 284.032 281.904 284.32 282.224 284.56C282.56 284.784 282.976 284.992 283.472 285.184C283.968 285.376 284.504 285.576 285.08 285.784C285.656 285.976 286.192 286.216 286.688 286.504C287.184 286.792 287.592 287.144 287.912 287.56C288.248 287.96 288.416 288.472 288.416 289.096C288.416 290.104 288.024 290.888 287.24 291.448C286.456 291.992 285.216 292.264 283.52 292.264C282.752 292.264 282.048 292.2 281.408 292.072C280.768 291.944 280.16 291.752 279.584 291.496L279.968 289.696C280.528 289.952 281.112 290.168 281.72 290.344C282.344 290.504 283.008 290.584 283.712 290.584C285.52 290.584 286.424 290.128 286.424 289.216Z" fill="#3A3D3D"/>
<path opacity="0.404971" d="M118.74 217.841C119.519 217.386 120.481 217.386 121.26 217.841L177.26 250.507C178.028 250.955 178.5 251.777 178.5 252.667V318.072C178.5 318.961 178.028 319.783 177.26 320.231L121.26 352.898C120.481 353.352 119.519 353.352 118.74 352.898L62.7403 320.231C61.9723 319.783 61.5 318.961 61.5 318.072V252.667C61.5 251.777 61.9723 250.955 62.7403 250.507L118.74 217.841L117.984 216.545L118.74 217.841Z" fill="white" stroke="#E04E39" stroke-width="3"/>
<path opacity="0.404971" d="M92.184 291.369V276.513H100.512V278.193H94.152V282.753H99.72V284.433H94.152V289.689H101.04V291.369H92.184ZM102.984 280.545C103.944 280.177 104.848 279.993 105.696 279.993C106.16 279.993 106.592 280.065 106.992 280.209C107.408 280.337 107.76 280.545 108.048 280.833C108.736 280.273 109.472 279.993 110.256 279.993C110.64 279.993 111 280.065 111.336 280.209C111.688 280.353 111.992 280.569 112.248 280.857C112.52 281.145 112.736 281.505 112.896 281.937C113.056 282.369 113.136 282.873 113.136 283.449V291.369H111.336V283.401C111.336 282.825 111.208 282.385 110.952 282.081C110.696 281.777 110.376 281.625 109.992 281.625C109.8 281.625 109.6 281.673 109.392 281.769C109.184 281.865 108.992 282.017 108.816 282.225C108.912 282.593 108.96 283.001 108.96 283.449V287.073H107.16V283.425C107.16 282.865 107.072 282.425 106.896 282.105C106.72 281.785 106.376 281.625 105.864 281.625C105.544 281.625 105.184 281.697 104.784 281.841V291.369H102.984V280.545ZM117.696 280.641C117.936 280.497 118.28 280.353 118.728 280.209C119.192 280.049 119.704 279.969 120.264 279.969C121.016 279.969 121.688 280.113 122.28 280.401C122.872 280.689 123.368 281.089 123.768 281.601C124.184 282.113 124.496 282.729 124.704 283.449C124.928 284.153 125.04 284.937 125.04 285.801C125.04 286.697 124.912 287.505 124.656 288.225C124.4 288.945 124.04 289.561 123.576 290.073C123.112 290.569 122.552 290.953 121.896 291.225C121.24 291.497 120.512 291.633 119.712 291.633C118.832 291.633 118.048 291.569 117.36 291.441C116.672 291.313 116.12 291.185 115.704 291.057V275.073L117.696 274.737V280.641ZM117.696 289.641C118 289.721 118.304 289.785 118.608 289.833C118.912 289.865 119.2 289.881 119.472 289.881C120.576 289.881 121.44 289.545 122.064 288.873C122.688 288.185 123 287.161 123 285.801C123 285.225 122.944 284.689 122.832 284.193C122.72 283.681 122.544 283.249 122.304 282.897C122.064 282.529 121.752 282.241 121.368 282.033C121 281.825 120.552 281.721 120.024 281.721C119.56 281.721 119.112 281.817 118.68 282.009C118.248 282.185 117.92 282.377 117.696 282.585V289.641ZM132.216 279.969C133.72 279.969 134.88 280.441 135.696 281.385C136.512 282.313 136.92 283.729 136.92 285.633V286.329H128.952C129.032 287.481 129.408 288.361 130.08 288.969C130.768 289.561 131.728 289.857 132.96 289.857C133.664 289.857 134.264 289.801 134.76 289.689C135.256 289.577 135.632 289.457 135.888 289.329L136.152 291.009C135.912 291.137 135.48 291.273 134.856 291.417C134.232 291.561 133.528 291.633 132.744 291.633C131.784 291.633 130.936 291.489 130.2 291.201C129.48 290.897 128.88 290.489 128.4 289.977C127.92 289.465 127.56 288.857 127.32 288.153C127.08 287.433 126.96 286.657 126.96 285.825C126.96 284.833 127.112 283.969 127.416 283.233C127.72 282.497 128.12 281.889 128.616 281.409C129.112 280.929 129.672 280.569 130.296 280.329C130.92 280.089 131.56 279.969 132.216 279.969ZM134.904 284.721C134.904 283.777 134.656 283.033 134.16 282.489C133.664 281.929 133.008 281.649 132.192 281.649C131.728 281.649 131.304 281.737 130.92 281.913C130.552 282.089 130.232 282.321 129.96 282.609C129.688 282.897 129.472 283.225 129.312 283.593C129.152 283.961 129.048 284.337 129 284.721H134.904ZM140.568 291.369V280.833C142.2 280.273 143.848 279.993 145.512 279.993C146.024 279.993 146.512 280.017 146.976 280.065C147.44 280.097 147.952 280.177 148.512 280.305L148.152 282.057C147.64 281.913 147.184 281.825 146.784 281.793C146.4 281.745 145.976 281.721 145.512 281.721C144.536 281.721 143.544 281.857 142.536 282.129V291.369H140.568Z" fill="#3A3D3D"/>
</svg>
