<svg width="216" height="52" viewBox="0 0 216 52" fill="none" xmlns="http://www.w3.org/2000/svg">
<path fill-rule="evenodd" clip-rule="evenodd" d="M20.9479 0.56663C22.2117 -0.188713 23.7883 -0.188714 25.0521 0.56663L44.0521 11.9224C45.2603 12.6445 46 13.9484 46 15.3559V34.9352C46 36.2785 45.3257 37.5321 44.2049 38.2726L25.2049 50.8254C23.8677 51.7088 22.1323 51.7088 20.7951 50.8254L1.79507 38.2726C0.674273 37.5321 0 36.2785 0 34.9352L0 15.3559C0 13.9484 0.739741 12.6445 1.9479 11.9224L20.9479 0.56663Z" fill="black"/>
<path d="M62.528 34.1601C62.208 34.1601 61.8347 34.1495 61.408 34.1281C60.9813 34.1068 60.5547 34.0748 60.128 34.0321C59.7013 34.0108 59.2747 33.9681 58.848 33.9041C58.4213 33.8401 58.048 33.7655 57.728 33.6801V14.4801C58.048 14.3948 58.4107 14.3201 58.816 14.2561C59.2427 14.1921 59.6693 14.1495 60.096 14.1281C60.544 14.0855 60.9707 14.0535 61.376 14.0321C61.8027 14.0108 62.1867 14.0001 62.528 14.0001C63.5093 14.0001 64.4267 14.0855 65.28 14.2561C66.1333 14.4268 66.8693 14.7148 67.488 15.1201C68.128 15.5255 68.6187 16.0588 68.96 16.7201C69.3227 17.3815 69.504 18.2028 69.504 19.1841C69.504 19.6535 69.4293 20.1121 69.28 20.5601C69.1307 20.9868 68.9173 21.3921 68.64 21.7761C68.384 22.1601 68.0747 22.5015 67.712 22.8001C67.3707 23.0775 66.9973 23.2908 66.592 23.4401C67.68 23.7388 68.5867 24.2935 69.312 25.1041C70.0587 25.8935 70.432 26.9281 70.432 28.2081C70.432 30.1708 69.8027 31.6535 68.544 32.6561C67.2853 33.6588 65.28 34.1601 62.528 34.1601ZM60.352 24.7521V31.8241C60.3947 31.8455 60.6293 31.8775 61.056 31.9201C61.504 31.9415 62.0587 31.9521 62.72 31.9521C63.3813 31.9521 64.0107 31.8988 64.608 31.7921C65.2267 31.6855 65.7707 31.4935 66.24 31.2161C66.7093 30.9175 67.0827 30.5335 67.36 30.0641C67.6587 29.5948 67.808 28.9868 67.808 28.2401C67.808 27.5788 67.6693 27.0241 67.392 26.5761C67.136 26.1281 66.784 25.7761 66.336 25.5201C65.9093 25.2428 65.408 25.0508 64.832 24.9441C64.256 24.8161 63.6587 24.7521 63.04 24.7521H60.352ZM60.352 22.5761H62.432C62.9653 22.5761 63.4987 22.5228 64.032 22.4161C64.5653 22.3095 65.0453 22.1388 65.472 21.9041C65.8987 21.6695 66.24 21.3495 66.496 20.9441C66.752 20.5388 66.88 20.0268 66.88 19.4081C66.88 18.8321 66.7627 18.3415 66.528 17.9361C66.2933 17.5308 65.984 17.2001 65.6 16.9441C65.216 16.6881 64.768 16.5068 64.256 16.4001C63.7653 16.2935 63.2427 16.2401 62.688 16.2401C62.1333 16.2401 61.6427 16.2508 61.216 16.2721C60.8107 16.2721 60.5227 16.2935 60.352 16.3361V22.5761ZM73.632 36.7841C73.824 36.8908 74.0907 36.9761 74.432 37.0401C74.7947 37.1041 75.1253 37.1361 75.424 37.1361C76.4693 37.1361 77.28 36.9015 77.856 36.4321C78.4533 35.9841 78.9973 35.2375 79.488 34.1921C78.2933 31.9308 77.1733 29.5095 76.128 26.9281C75.0827 24.3255 74.2187 21.7335 73.536 19.1521H76.416C76.6293 20.0055 76.8747 20.9335 77.152 21.9361C77.4507 22.9175 77.7813 23.9308 78.144 24.9761C78.5067 26.0215 78.8907 27.0775 79.296 28.1441C79.7227 29.1895 80.1707 30.1921 80.64 31.1521C80.9813 30.1708 81.3013 29.2001 81.6 28.2401C81.8987 27.2801 82.176 26.3201 82.432 25.3601C82.688 24.3788 82.944 23.3868 83.2 22.3841C83.456 21.3601 83.7227 20.2828 84 19.1521H86.752C86.0693 21.9255 85.3013 24.6135 84.448 27.2161C83.616 29.8188 82.72 32.2295 81.76 34.4481C81.3973 35.3015 81.0027 36.0375 80.576 36.6561C80.1707 37.2748 79.7227 37.7868 79.232 38.1921C78.7413 38.5975 78.1867 38.8961 77.568 39.0881C76.9493 39.2801 76.2453 39.3761 75.456 39.3761C75.0507 39.3761 74.6027 39.3228 74.112 39.2161C73.6427 39.1095 73.3227 39.0135 73.152 38.9281L73.632 36.7841ZM91.424 34.0001V19.9521C93.6 19.2055 95.7973 18.8321 98.016 18.8321C98.6987 18.8321 99.3493 18.8641 99.968 18.9281C100.587 18.9708 101.269 19.0775 102.016 19.2481L101.536 21.5841C100.853 21.3921 100.245 21.2748 99.712 21.2321C99.2 21.1681 98.6347 21.1361 98.016 21.1361C96.7147 21.1361 95.392 21.3175 94.048 21.6801V34.0001H91.424ZM106.272 19.5681C107.232 19.3335 108.181 19.1521 109.12 19.0241C110.08 18.8961 110.976 18.8321 111.808 18.8321C113.792 18.8321 115.285 19.3441 116.288 20.3681C117.312 21.3921 117.824 23.0348 117.824 25.2961V34.0001H115.2V25.7761C115.2 24.8161 115.115 24.0375 114.944 23.4401C114.773 22.8428 114.528 22.3841 114.208 22.0641C113.909 21.7228 113.536 21.4881 113.088 21.3601C112.661 21.2321 112.192 21.1681 111.68 21.1681C111.253 21.1681 110.795 21.2001 110.304 21.2641C109.835 21.3068 109.376 21.3708 108.928 21.4561V34.0001H106.272V19.5681ZM128.288 18.8001C130.293 18.8001 131.84 19.4295 132.928 20.6881C134.016 21.9255 134.56 23.8135 134.56 26.3521V27.2801H123.936C124.043 28.8161 124.544 29.9895 125.44 30.8001C126.357 31.5895 127.637 31.9841 129.28 31.9841C130.219 31.9841 131.019 31.9095 131.68 31.7601C132.341 31.6108 132.843 31.4508 133.184 31.2801L133.536 33.5201C133.216 33.6908 132.64 33.8721 131.808 34.0641C130.976 34.2561 130.037 34.3521 128.992 34.3521C127.712 34.3521 126.581 34.1601 125.6 33.7761C124.64 33.3708 123.84 32.8268 123.2 32.1441C122.56 31.4615 122.08 30.6508 121.76 29.7121C121.44 28.7521 121.28 27.7175 121.28 26.6081C121.28 25.2855 121.483 24.1335 121.888 23.1521C122.293 22.1708 122.827 21.3601 123.488 20.7201C124.149 20.0801 124.896 19.6001 125.728 19.2801C126.56 18.9601 127.413 18.8001 128.288 18.8001ZM131.872 25.1361C131.872 23.8775 131.541 22.8855 130.88 22.1601C130.219 21.4135 129.344 21.0401 128.256 21.0401C127.637 21.0401 127.072 21.1575 126.56 21.3921C126.069 21.6268 125.643 21.9361 125.28 22.3201C124.917 22.7041 124.629 23.1415 124.416 23.6321C124.203 24.1228 124.064 24.6241 124 25.1361H131.872ZM137.568 26.6081C137.568 25.2641 137.781 24.1015 138.208 23.1201C138.635 22.1388 139.221 21.3281 139.968 20.6881C140.715 20.0481 141.579 19.5788 142.56 19.2801C143.563 18.9601 144.629 18.8001 145.76 18.8001C146.485 18.8001 147.2 18.8535 147.904 18.9601C148.629 19.0455 149.397 19.2161 150.208 19.4721L149.6 21.7441C148.896 21.4881 148.245 21.3281 147.648 21.2641C147.072 21.1788 146.485 21.1361 145.888 21.1361C145.12 21.1361 144.395 21.2428 143.712 21.4561C143.029 21.6481 142.432 21.9681 141.92 22.4161C141.429 22.8428 141.035 23.4081 140.736 24.1121C140.437 24.7948 140.288 25.6268 140.288 26.6081C140.288 27.5468 140.427 28.3575 140.704 29.0401C140.981 29.7015 141.365 30.2561 141.856 30.7041C142.368 31.1308 142.976 31.4508 143.68 31.6641C144.384 31.8775 145.163 31.9841 146.016 31.9841C146.699 31.9841 147.349 31.9521 147.968 31.8881C148.608 31.8028 149.301 31.6321 150.048 31.3761L150.432 33.5841C149.685 33.8615 148.928 34.0535 148.16 34.1601C147.392 34.2881 146.56 34.3521 145.664 34.3521C144.469 34.3521 143.371 34.1921 142.368 33.8721C141.387 33.5308 140.533 33.0401 139.808 32.4001C139.104 31.7601 138.549 30.9601 138.144 30.0001C137.76 29.0188 137.568 27.8881 137.568 26.6081ZM166.72 26.5761C166.72 27.7495 166.549 28.8161 166.208 29.7761C165.888 30.7148 165.429 31.5255 164.832 32.2081C164.235 32.8908 163.52 33.4241 162.688 33.8081C161.856 34.1708 160.949 34.3521 159.968 34.3521C159.008 34.3521 158.112 34.1708 157.28 33.8081C156.469 33.4241 155.765 32.8908 155.168 32.2081C154.571 31.5255 154.101 30.7148 153.76 29.7761C153.44 28.8161 153.28 27.7495 153.28 26.5761C153.28 25.4028 153.44 24.3361 153.76 23.3761C154.101 22.4161 154.571 21.6055 155.168 20.9441C155.765 20.2615 156.469 19.7388 157.28 19.3761C158.112 18.9921 159.008 18.8001 159.968 18.8001C160.949 18.8001 161.856 18.9921 162.688 19.3761C163.52 19.7388 164.235 20.2615 164.832 20.9441C165.429 21.6055 165.888 22.4161 166.208 23.3761C166.549 24.3361 166.72 25.4028 166.72 26.5761ZM164 26.5761C164 24.8908 163.637 23.5681 162.912 22.6081C162.187 21.6268 161.205 21.1361 159.968 21.1361C158.752 21.1361 157.781 21.6268 157.056 22.6081C156.352 23.5681 156 24.8908 156 26.5761C156 28.2401 156.352 29.5628 157.056 30.5441C157.781 31.5041 158.752 31.9841 159.968 31.9841C161.205 31.9841 162.187 31.5041 162.912 30.5441C163.637 29.5628 164 28.2401 164 26.5761ZM179.072 22.2881C178.773 22.0108 178.336 21.7548 177.76 21.5201C177.184 21.2641 176.587 21.1361 175.968 21.1361C175.264 21.1361 174.656 21.2748 174.144 21.5521C173.653 21.8295 173.248 22.2135 172.928 22.7041C172.608 23.1735 172.373 23.7495 172.224 24.4321C172.075 25.0935 172 25.8081 172 26.5761C172 28.3041 172.405 29.6375 173.216 30.5761C174.027 31.5148 175.083 31.9841 176.384 31.9841C177.045 31.9841 177.6 31.9521 178.048 31.8881C178.517 31.8241 178.859 31.7601 179.072 31.6961V22.2881ZM179.072 12.2721L181.728 11.8241V33.5841C181.152 33.7548 180.416 33.9255 179.52 34.0961C178.624 34.2668 177.579 34.3521 176.384 34.3521C175.317 34.3521 174.347 34.1708 173.472 33.8081C172.597 33.4455 171.851 32.9335 171.232 32.2721C170.613 31.5895 170.133 30.7681 169.792 29.8081C169.451 28.8481 169.28 27.7708 169.28 26.5761C169.28 25.4241 169.419 24.3788 169.696 23.4401C169.995 22.4801 170.421 21.6588 170.976 20.9761C171.531 20.2935 172.192 19.7601 172.96 19.3761C173.749 18.9921 174.645 18.8001 175.648 18.8001C176.437 18.8001 177.131 18.8961 177.728 19.0881C178.325 19.2801 178.773 19.4828 179.072 19.6961V12.2721ZM192.288 18.8001C194.293 18.8001 195.84 19.4295 196.928 20.6881C198.016 21.9255 198.56 23.8135 198.56 26.3521V27.2801H187.936C188.043 28.8161 188.544 29.9895 189.44 30.8001C190.357 31.5895 191.637 31.9841 193.28 31.9841C194.219 31.9841 195.019 31.9095 195.68 31.7601C196.341 31.6108 196.843 31.4508 197.184 31.2801L197.536 33.5201C197.216 33.6908 196.64 33.8721 195.808 34.0641C194.976 34.2561 194.037 34.3521 192.992 34.3521C191.712 34.3521 190.581 34.1601 189.6 33.7761C188.64 33.3708 187.84 32.8268 187.2 32.1441C186.56 31.4615 186.08 30.6508 185.76 29.7121C185.44 28.7521 185.28 27.7175 185.28 26.6081C185.28 25.2855 185.483 24.1335 185.888 23.1521C186.293 22.1708 186.827 21.3601 187.488 20.7201C188.149 20.0801 188.896 19.6001 189.728 19.2801C190.56 18.9601 191.413 18.8001 192.288 18.8001ZM195.872 25.1361C195.872 23.8775 195.541 22.8855 194.88 22.1601C194.219 21.4135 193.344 21.0401 192.256 21.0401C191.637 21.0401 191.072 21.1575 190.56 21.3921C190.069 21.6268 189.643 21.9361 189.28 22.3201C188.917 22.7041 188.629 23.1415 188.416 23.6321C188.203 24.1228 188.064 24.6241 188 25.1361H195.872ZM211.232 30.2881C211.232 29.7548 211.008 29.3175 210.56 28.9761C210.133 28.6348 209.589 28.3361 208.928 28.0801C208.288 27.8241 207.584 27.5788 206.816 27.3441C206.048 27.0881 205.333 26.7788 204.672 26.4161C204.032 26.0535 203.488 25.6055 203.04 25.0721C202.613 24.5388 202.4 23.8455 202.4 22.9921C202.4 21.7975 202.88 20.8055 203.84 20.0161C204.821 19.2055 206.347 18.8001 208.416 18.8001C209.227 18.8001 210.059 18.8641 210.912 18.9921C211.787 19.0988 212.533 19.2481 213.152 19.4401L212.672 21.8081C212.501 21.7228 212.267 21.6375 211.968 21.5521C211.669 21.4455 211.328 21.3601 210.944 21.2961C210.56 21.2108 210.144 21.1468 209.696 21.1041C209.269 21.0615 208.853 21.0401 208.448 21.0401C206.144 21.0401 204.992 21.6695 204.992 22.9281C204.992 23.3761 205.205 23.7601 205.632 24.0801C206.08 24.3788 206.635 24.6561 207.296 24.9121C207.957 25.1681 208.672 25.4348 209.44 25.7121C210.208 25.9681 210.923 26.2881 211.584 26.6721C212.245 27.0561 212.789 27.5255 213.216 28.0801C213.664 28.6135 213.888 29.2961 213.888 30.1281C213.888 31.4721 213.365 32.5175 212.32 33.2641C211.275 33.9895 209.621 34.3521 207.36 34.3521C206.336 34.3521 205.397 34.2668 204.544 34.0961C203.691 33.9255 202.88 33.6695 202.112 33.3281L202.624 30.9281C203.371 31.2695 204.149 31.5575 204.96 31.7921C205.792 32.0055 206.677 32.1121 207.616 32.1121C210.027 32.1121 211.232 31.5041 211.232 30.2881Z" fill="#3A3D3D"/>
</svg>
