<svg width="133" height="55" viewBox="0 0 133 55" fill="none" xmlns="http://www.w3.org/2000/svg">
<path fill-rule="evenodd" clip-rule="evenodd" d="M132.176 28.4179C132.176 19.0187 127.623 11.6021 118.922 11.6021C110.184 11.6021 104.896 19.0187 104.896 28.3444C104.896 39.3958 111.138 44.9766 120.097 44.9766C124.466 44.9766 127.77 43.9853 130.267 42.5901V35.247C127.77 36.4953 124.906 37.2663 121.272 37.2663C117.71 37.2663 114.553 36.018 114.149 31.6856H132.103C132.103 31.2083 132.176 29.299 132.176 28.4179ZM114.039 24.9299C114.039 20.781 116.572 19.0554 118.885 19.0554C121.125 19.0554 123.511 20.781 123.511 24.9299H114.039Z" fill="#121212"/>
<path fill-rule="evenodd" clip-rule="evenodd" d="M90.7244 11.6021C87.1263 11.6021 84.8132 13.291 83.5281 14.4659L83.0508 12.1896H74.9734V55L84.1523 53.0541L84.189 42.6635C85.5108 43.6181 87.4567 44.9766 90.6877 44.9766C97.2598 44.9766 103.244 39.6896 103.244 28.0507C103.208 17.4032 97.1496 11.6021 90.7244 11.6021ZM88.5215 36.8992C86.3552 36.8992 85.0702 36.1282 84.189 35.1735L84.1523 21.552C85.1069 20.4873 86.4287 19.753 88.5215 19.753C91.8626 19.753 94.1757 23.498 94.1757 28.3077C94.1757 33.2276 91.8993 36.8992 88.5215 36.8992Z" fill="#121212"/>
<path fill-rule="evenodd" clip-rule="evenodd" d="M62.343 9.43591L71.5586 7.45327V0L62.343 1.94593V9.43591Z" fill="#121212"/>
<path d="M71.5586 12.2263H62.343V44.3525H71.5586V12.2263Z" fill="#121212"/>
<path fill-rule="evenodd" clip-rule="evenodd" d="M52.4668 14.9433L51.8793 12.2263H43.9487V44.3525H53.1276V22.5801C55.2939 19.753 58.9654 20.267 60.1036 20.6709V12.2263C58.9287 11.7857 54.633 10.978 52.4668 14.9433Z" fill="#121212"/>
<path fill-rule="evenodd" clip-rule="evenodd" d="M34.1089 4.25903L25.1502 6.16825L25.1135 35.5775C25.1135 41.0114 29.189 45.0134 34.6229 45.0134C37.6336 45.0134 39.8365 44.4626 41.0481 43.8018V36.3485C39.8732 36.8258 34.0721 38.5147 34.0721 33.0808V20.0468H41.0481V12.2263H34.0721L34.1089 4.25903Z" fill="#121212"/>
<path fill-rule="evenodd" clip-rule="evenodd" d="M9.28905 21.552C9.28905 20.1201 10.464 19.5694 12.4099 19.5694C15.2003 19.5694 18.725 20.4139 21.5154 21.9192V13.291C18.468 12.0794 15.4573 11.6021 12.4099 11.6021C4.95661 11.6021 0 15.494 0 21.9926C0 32.1262 13.9519 30.5107 13.9519 34.8798C13.9519 36.5687 12.4833 37.1195 10.4272 37.1195C7.37984 37.1195 3.48798 35.8711 0.403871 34.1822V42.9205C3.81842 44.3892 7.26969 45.0133 10.4272 45.0133C18.0641 45.0133 23.3144 41.2316 23.3144 34.6595C23.2777 23.7183 9.28905 25.6642 9.28905 21.552Z" fill="#121212"/>
</svg>
